Coordinates
version=1
nRows=14
nColumns=28
inDegrees=yes

Units are S.I. units (second, meters, Newtons, ...)
Angles are in degrees.

endheader
time	pelvis_tilt	pelvis_list	pelvis_rotation	pelvis_tx	pelvis_ty	pelvis_tz	hip_flexion_r	hip_adduction_r	hip_rotation_r	knee_angle_r	ankle_angle_r	subtalar_angle_r	mtp_angle_r	hip_flexion_l	hip_adduction_l	hip_rotation_l	knee_angle_l	socket_flexion	socket_adduction	socket_rotation	socket_tx	socket_ty	socket_tz	foot_flex	lumbar_extension	lumbar_bending	lumbar_rotation
      0.27083333	      2.12802426	      5.10518345	     -3.34455278	     -0.35940392	      0.98459419	      0.25539702	     13.73385724	     -8.32176651	      3.95562364	    -64.62401484	    -12.11568849	     -5.08097186	     18.77498121	      8.78254362	      4.68194567	      1.77976477	    -23.94067116	     -2.25300620	      0.00000000	      0.00000000	      0.00000000	     -0.00680525	      0.00000000	      4.46813276	     -8.12736859	     -6.89251160	     -3.39404466
      0.27500000	      2.19398607	      4.90178837	     -3.23754757	     -0.35351851	      0.98590549	      0.25502674	     14.39493664	     -8.09567846	      3.79482867	    -64.57596883	    -11.20751230	     -5.25280192	     18.63265074	      8.04554280	      4.51698730	      1.94885061	    -23.33721720	     -2.07642070	      0.00000000	      0.00000000	      0.00000000	     -0.00677211	      0.00000000	      4.47703846	     -8.24589003	     -6.56127799	     -3.61629746
      0.27916667	      2.24887674	      4.70110737	     -3.13133057	     -0.34783096	      0.98713687	      0.25467606	     15.08385340	     -7.86121551	      3.63865071	    -64.50097843	    -10.35138131	     -5.48301204	     18.57056852	      7.39795429	      4.34878946	      2.12755265	    -22.92263647	     -2.02405976	      0.00000000	      0.00000000	      0.00000000	     -0.00663637	      0.00000000	      4.46835358	     -8.34728554	     -6.28654676	     -3.76545603
      0.28333333	      2.68555769	      4.48153915	     -3.12349431	     -0.34134050	      0.98920630	      0.25460377	     15.14562959	     -7.59879173	      3.52640878	    -64.12737622	     -9.34393871	     -5.47708667	     17.45843714	      5.82885267	      4.15595428	      2.36274193	    -21.10315031	     -1.09279066	      0.00000000	      0.00000000	      0.00000000	     -0.00695930	      0.00000000	      4.53735605	     -8.74775720	     -6.09990125	     -4.20339415
      0.28750000	      2.68590657	      4.26957095	     -2.99933473	     -0.33569680	      0.99032066	      0.25427161	     15.84628422	     -7.33468160	      3.36694230	    -63.93612603	     -8.43685591	     -5.78558947	     17.41445679	      5.30250944	      3.96320976	      2.50704903	    -20.87581437	     -1.16233471	      0.00000000	      0.00000000	      0.00000000	     -0.00672473	      0.00000000	      4.53236828	     -8.78839084	     -5.80318951	     -4.23199377
      0.29166667	      2.68490429	      4.04256586	     -2.87250962	     -0.33000840	      0.99144924	      0.25398022	     16.51455162	     -7.06065183	      3.16564886	    -63.66443013	     -7.64414172	     -6.08017775	     17.33972042	      4.75357912	      3.75178476	      2.68870617	    -20.56466079	     -1.16859693	      0.00000000	      0.00000000	      0.00000000	     -0.00650183	      0.00000000	      4.53190388	     -8.77780045	     -5.54258562	     -4.33770290
      0.29583333	      2.87527950	      3.73896374	     -2.72252079	     -0.32381105	      0.99304736	      0.25368933	     16.78056107	     -6.68929768	      2.96086974	    -63.13285365	     -6.88547825	     -6.48694362	     16.27396416	      3.64517402	      3.45163021	      3.00215348	    -19.21668570	     -0.49244585	      0.00000000	      0.00000000	      0.00000000	     -0.00668057	      0.00000000	      4.56012161	     -8.95540986	     -5.16671374	     -4.83162886
      0.30000000	      2.87809109	      3.55765359	     -2.59948212	     -0.31820615	      0.99409428	      0.25343020	     17.41390358	     -6.46037178	      2.79027286	    -62.76396258	     -6.01533975	     -6.81725036	     16.19585898	      3.13801905	      3.27791471	      3.12054961	    -19.01527345	     -0.57172977	      0.00000000	      0.00000000	      0.00000000	     -0.00635074	      0.00000000	      4.55160746	     -8.99648923	     -4.96157205	     -4.85143761
      0.30416667	      2.85408266	      3.31445843	     -2.43434969	     -0.31250162	      0.99516838	      0.25310889	     17.99019064	     -6.15585885	      2.58362371	    -62.25295073	     -5.22452129	     -7.20909022	     15.98695482	      2.60494152	      3.03794320	      3.34593064	    -18.62224096	     -0.49829116	      0.00000000	      0.00000000	      0.00000000	     -0.00613309	      0.00000000	      4.56540192	     -8.98301009	     -4.64899251	     -4.99241438
      0.30833333	      2.86447847	      3.28991551	     -2.37222788	     -0.30713175	      0.99613785	      0.25289906	     18.65247366	     -6.11928165	      2.48990796	    -61.78790295	     -5.10315047	     -7.27065214	     15.96571141	      2.16518804	      3.03897780	      3.40917125	    -18.56901487	     -0.67861056	      0.00000000	      0.00000000	      0.00000000	     -0.00543374	      0.00000000	      4.61323518	     -9.08095353	     -4.64351657	     -5.01019823
      0.31250000	      3.23735661	      2.78028294	     -2.17935205	     -0.30075182	      0.99799086	      0.25276076	     18.50403906	     -5.47072443	      2.19761641	    -60.92823042	     -3.92464935	     -8.31262591	     13.59878898	      0.69610378	      2.47873594	      3.76474801	    -16.71503891	      0.34324609	      0.00000000	      0.00000000	      0.00000000	     -0.00597711	      0.00000000	      4.55076639	     -9.47415230	     -4.01549770	     -5.52406499
      0.31666667	      3.22543014	      2.75893856	     -2.13335274	     -0.29538465	      0.99880206	      0.25261837	     19.15210419	     -5.43331496	      2.09089432	    -60.37402701	     -3.76392824	     -8.38245872	     13.58701873	      0.28671807	      2.47725027	      3.82087599	    -16.67715285	      0.16058525	      0.00000000	      0.00000000	      0.00000000	     -0.00533944	      0.00000000	      4.59360965	     -9.55146894	     -4.02457683	     -5.53208941
      0.32083333	      3.09821008	      2.26059146	     -1.73888679	     -0.28933896	      0.99974819	      0.25213849	     19.53843301	     -4.85171249	      1.65139926	    -59.43615123	     -2.81792005	     -9.34147324	     12.86397805	     -0.23505882	      1.92287873	      4.25587472	    -15.93981896	      0.50405969	      0.00000000	      0.00000000	      0.00000000	     -0.00563995	      0.00000000	      4.53555477	     -9.30531325	     -3.38417435	     -5.97677734
      0.32500000	      3.07246720	      2.24885093	     -1.68930916	     -0.28403692	      1.00045186	      0.25202423	     20.15815445	     -4.82023874	      1.55449100	    -58.78473082	     -2.61647168	     -9.44822957	     12.83895336	     -0.61881883	      1.92553845	      4.29791477	    -15.89349801	      0.34319725	      0.00000000	      0.00000000	      0.00000000	     -0.00503185	      0.00000000	      4.56601156	     -9.40937586	     -3.39888024	     -5.98847397
